<?xml version="1.0" encoding="UTF-8"?>
<svg width="151px" height="40px" viewBox="0 0 151 40" version="1.1" xmlns="http://www.w3.org/2000/svg" xmlns:xlink="http://www.w3.org/1999/xlink">
    <!-- Generator: sketchtool 42 (36781) - http://www.bohemiancoding.com/sketch -->
    <title>CA5EB81D-7AF4-4E97-AFC2-3D96E582706B</title>
    <desc>Created with sketchtool.</desc>
    <defs></defs>
    <g id="Symbols" stroke="none" stroke-width="1" fill="none" fill-rule="evenodd">
        <g id="header" transform="translate(-30.000000, -16.000000)" fill="#FFFFFF">
            <g id="Group" transform="translate(29.000000, 16.000000)">
                <path d="M66.7010713,16.7081379 C66.4245938,16.7081379 66.0252678,16.7142069 65.5591585,16.7765517 C64.2916491,16.9542069 62.5096606,17.561931 61.2209893,19.6554483 C60.9304955,20.1271724 60.6402765,20.7133793 60.4063974,21.4286897 C60.2011004,22.0551724 60.0400509,22.7782069 59.9570527,23.6135172 C59.9331426,23.873931 59.9053849,24.1486897 59.9053849,24.4317241 C59.9053849,25.294069 60.0892452,25.9848276 60.4063974,26.528 C60.8400769,27.2913103 61.5307211,27.7834483 62.3387172,28.1084138 C63.2786309,28.4753103 64.3199565,28.5828966 65.3359977,28.5828966 C65.4082777,28.5828966 65.4849548,28.5806897 65.5591585,28.5806897 C66.4265176,28.566069 67.2875555,28.4568276 68.1128658,28.2201379 L68.309643,28.0195862 C68.6103055,26.9451034 68.7320546,26.5611034 69.0541537,25.616 L68.832367,25.5268966 C68.0375627,25.9988966 67.1680051,26.1950345 66.1797215,26.1950345 C66.0673166,26.1950345 65.8408578,26.1950345 65.5591585,26.1605517 C65.0138986,26.0995862 64.2809308,25.9097931 63.8736348,25.3566897 C63.6262891,25.0135172 63.5759955,24.6022069 63.5759955,24.2369655 C63.5759955,23.848 63.6262891,23.5486897 63.7013173,23.2697931 C64.0858025,23.2626207 64.7915623,23.254069 65.5594334,23.2526897 C66.7115148,23.2471724 68.0004609,23.2471724 68.5855709,23.2471724 L69.7211626,23.2471724 L69.9204134,23.1197241 C70.5187152,21.5685517 70.5431749,20.1266207 70.5431749,19.976 C70.5426253,17.8071724 69.0027607,16.7081379 66.7010713,16.7081379 L66.7010713,16.7081379 Z M66.7989103,21.2474483 L65.5591585,21.2664828 L64.0704121,21.2868966 C64.3468897,20.3437241 64.6896009,19.7233103 65.0138986,19.3271724 C65.1051417,19.225931 65.289002,19.0262069 65.5591585,18.8957241 C65.7281781,18.8154483 65.9213826,18.7531034 66.1544373,18.7531034 C66.8972989,18.7531034 67.0429581,19.3522759 67.0429581,19.7842759 C67.0429581,20.1271724 66.970953,20.6684138 66.7989103,21.2474483 L66.7989103,21.2474483 Z M68.3599367,12.1489655 L67.5175871,12.1489655 L67.3433457,12.2571034 C66.5394721,13.6524138 66.2588721,14.1053793 65.5591585,15.1506207 L65.1631306,15.7404138 L65.2365098,15.8731034 L65.5594334,15.8615172 C66.3679791,15.8452414 66.5782229,15.8452414 67.3939142,15.8452414 L67.567331,15.7790345 C69.1047221,14.1042759 69.4974522,13.6971034 70.9119949,12.233931 L70.8617013,12.1070345 C69.6961532,12.1489655 69.2042101,12.1489655 68.3599367,12.1489655 L68.3599367,12.1489655 Z M46.7460426,25.8093793 C44.1692497,25.8093793 43.1279242,24.302069 43.1279242,22.2788966 C43.1279242,19.7448276 44.7392442,15.7630345 48.3048703,15.7630345 C49.3236599,15.7630345 50.1399008,16.0446897 50.9105201,16.6231724 L51.0732186,16.5809655 L51.1361544,16.5608276 C51.5066233,15.3754483 51.5769794,15.1561379 52.0271487,13.9550345 L51.9534946,13.8027586 C51.6569545,13.6606897 51.3590404,13.5387586 51.0732186,13.4364138 C49.6740663,12.9390345 48.4301921,12.8824828 47.8123775,12.8824828 C46.6237438,12.8824828 42.9072369,13.1186207 40.5511314,16.8604138 C39.4573136,18.5787586 38.9159013,20.6684138 38.9159013,22.4731034 C38.9159013,26.1103448 41.1197517,28.6273103 45.5546606,28.6273103 C46.1304265,28.6273103 47.6150505,28.5594483 48.4318411,28.2984828 C48.5321535,28.2595862 48.6074566,28.2402759 48.7055704,28.1966897 L48.9031721,28.0016552 C49.2796873,26.6904828 49.2983756,26.5613793 49.7490945,25.2295172 L49.5726546,25.1417931 C48.5816227,25.7423448 47.338573,25.8093793 46.7460426,25.8093793 L46.7460426,25.8093793 Z M60.4063974,18.3053793 C60.5726687,17.9417931 60.7422379,17.5817931 60.9010889,17.2041379 L60.8507952,16.9886897 C60.7279468,16.9268966 60.6056481,16.8488276 60.4063974,16.8008276 C60.2780524,16.7743448 60.1186519,16.7514483 59.9053849,16.7514483 C58.1742396,16.7514483 57.3324397,18.0424828 56.2652803,19.6995862 C56.6626824,18.1944828 56.7566738,17.8706207 57.0828953,16.817931 L56.9589476,16.6871724 C55.2742484,16.9886897 54.8037419,17.0510345 52.9895984,17.2675862 L52.8444889,17.3757241 C52.5462999,19.201931 52.4204284,19.8910345 51.532732,23.2697931 L51.0734935,25.0022069 L51.0358419,25.1412414 C50.8868849,25.616 50.2896823,27.7227586 50.1662843,28.1293793 L50.1176396,28.281931 L50.2426866,28.3886897 L51.0734935,28.3644138 C52.2137573,28.3426207 52.7285112,28.3238621 54.033947,28.3238621 L54.2084631,28.1964138 C54.3324108,27.5928276 54.3587944,27.4193103 54.6545099,26.3026207 L55.1733863,24.1486897 C55.6711009,22.0852414 56.1160483,20.2582069 58.1481309,20.2582069 C58.8426227,20.2582069 59.1397124,20.4736552 59.3134041,20.5804138 L59.4873706,20.5351724 C59.6857968,19.9994483 59.9056597,19.4612414 60.1354164,18.9252414 C60.2230867,18.7188966 60.3093829,18.5122759 60.4063974,18.3053793 L60.4063974,18.3053793 Z M107.398513,17.9754483 C106.207406,16.7517241 104.422394,16.7084138 103.775722,16.7084138 C103.422568,16.7084138 103.087277,16.7263448 102.776995,16.7677241 C100.077904,17.1073103 98.911806,18.7550345 98.4190384,19.5257931 C97.994703,20.222069 97.6599618,21.0430345 97.4348772,21.870069 C97.2040212,22.705931 97.0855701,23.5550345 97.0855701,24.302069 C97.0855701,25.0548966 97.2086933,25.6882759 97.4348772,26.2132414 C98.1859837,28.0063448 100.032007,28.5828966 101.794758,28.5828966 C102.050623,28.5828966 102.388662,28.5710345 102.776995,28.5252414 C103.638033,28.4212414 104.755486,28.1415172 105.734151,27.3798621 C107.817901,25.768 108.43764,22.6066207 108.43764,20.9867586 C108.43764,20.473931 108.415104,19.0104828 107.398513,17.9754483 L107.398513,17.9754483 Z M103.306315,25.3977931 C103.177146,25.6388966 103.014172,25.8993103 102.776995,26.0929655 C102.562904,26.2686897 102.292472,26.3906207 101.945089,26.3906207 C100.899641,26.3906207 100.899641,25.4612414 100.899641,25.073931 C100.899641,23.5274483 101.646625,21.0529655 102.094321,20.1271724 C102.218544,19.873931 102.440605,19.4973793 102.776995,19.2314483 C103.013898,19.0402759 103.306315,18.8984828 103.680357,18.8984828 C104.642532,18.8984828 104.642532,19.872 104.642532,20.2582069 C104.642532,21.4626207 104.075011,24.0198621 103.306315,25.3977931 L103.306315,25.3977931 Z M95.3505772,19.3073103 C96.0186855,19.3073103 96.4169121,19.3073103 96.9399109,19.3271724 L97.1100298,19.2016552 C97.2435965,18.7111724 97.3282437,18.4171034 97.4348772,18.0937931 C97.5244713,17.8234483 97.6206613,17.5255172 97.7811612,17.0753103 L97.7044841,16.9470345 L97.435152,16.9486897 C96.8395985,16.9707586 96.5546013,16.9886897 95.9235948,16.9886897 L96.4410971,15.1558621 L96.9401858,13.4383448 L96.8395985,13.3291034 C95.1518762,13.7395862 94.6324501,13.8697931 92.9994187,14.1917241 L92.8238032,14.3202759 C92.5489746,15.5484138 92.477794,15.8038621 92.1801547,16.9633103 C91.6346199,16.9633103 91.5843263,16.9633103 91.0401657,16.9470345 L90.8887351,17.0753103 C90.6551308,17.9624828 90.5888972,18.1845517 90.3819512,18.8438621 L90.2678974,19.2016552 L90.3712329,19.3271724 L90.3819512,19.3271724 C90.9431512,19.2882759 91.0151563,19.2882759 91.6346199,19.2882759 L90.4938065,23.3106207 L90.3822261,23.7401379 C90.1653863,24.5724138 89.9463479,25.4529655 89.9463479,26.129931 C89.9463479,26.7508966 90.1137185,27.2082759 90.3822261,27.5508966 C90.5432756,27.7522759 90.7419767,27.913931 90.965962,28.0457931 C91.3880987,28.2982069 92.0790177,28.5188966 93.0703245,28.5188966 C93.4660776,28.5188966 94.2105883,28.4971034 94.8806203,28.3238621 L95.0521134,28.1964138 C95.3016577,27.2273103 95.3777853,26.9453793 95.6976857,25.9988966 L95.5720891,25.9577931 C95.179359,26.0433103 94.929265,26.0433103 94.6810948,26.0433103 C94.4356729,26.0433103 93.8895885,25.8957241 93.8895885,25.2295172 C93.8895885,24.928 94.0162844,24.3685517 94.3625685,23.0744828 L95.3505772,19.3073103 L95.3505772,19.3073103 Z M83.8421302,16.0670345 L83.9729486,15.5713103 C84.2502507,14.6444138 84.5937864,13.353931 85.0398332,12.0215172 L84.9169848,11.8910345 C84.4745108,11.9646897 84.1339982,12.0215172 83.842405,12.0692414 C82.9275007,12.2190345 82.4740335,12.286069 80.9737443,12.5131034 L80.8000526,12.648 C80.7027633,13.0292414 80.3551051,14.7748966 80.255892,15.1387586 L79.8081962,16.9633103 C79.2884954,16.9470345 78.915553,16.9271724 78.550031,16.9271724 C78.1017855,16.9271724 77.6227593,16.9473103 77.1335644,17.0173793 C76.0960865,17.1735172 74.9907259,17.5622069 73.9601188,18.4488276 C72.027799,20.0874483 71.0587534,22.9244138 71.0587534,25.0358621 C71.0587534,25.4223448 71.08816,25.7842759 71.1854494,26.1746207 C71.3066488,26.8173793 71.6565055,27.8093793 72.8946083,28.2982069 C73.3898494,28.4971034 73.8897626,28.5409655 74.2091135,28.5409655 C75.4002205,28.5409655 76.3272174,28.1208276 77.1338393,27.3864828 C77.1852322,27.3434483 77.2374496,27.2957241 77.2830712,27.249931 L77.1338393,27.7588966 L76.983508,28.2593103 L77.1066312,28.3886897 L77.1338393,28.3886897 C78.5777886,28.3238621 79.0246599,28.3238621 80.6277351,28.3238621 L80.776967,28.1964138 C81.1015395,26.3906207 81.9928087,22.8808276 82.6603673,20.4088276 L83.8421302,16.0670345 L83.8421302,16.0670345 Z M77.5787867,25.3566897 C77.5636712,25.4529655 77.360298,25.6604138 77.1332896,25.8245517 C77.0522152,25.8877241 76.9650945,25.9373793 76.8864935,25.9757241 C76.712527,26.0430345 76.4871676,26.110069 76.2400967,26.110069 C75.1001077,26.110069 75.1001077,24.9682759 75.1001077,24.6902069 C75.1001077,23.5986207 75.8152117,20.9533793 77.1332896,19.8082759 C77.246519,19.7103448 77.360298,19.6201379 77.4765505,19.5453793 C78.0762265,19.1817931 78.5725669,19.201931 79.1697694,19.2466207 L77.5787867,25.3566897 L77.5787867,25.3566897 Z M90.3819512,13.7111724 C90.4990282,13.2893793 90.6114331,12.9222069 90.8192035,12.2342069 L90.6474356,12.0816552 L90.3819512,12.12 C88.8662716,12.3282759 88.4240724,12.3765517 86.9246076,12.5335172 L86.6986985,12.6866207 C86.4785608,13.7395862 86.4049068,13.9988966 86.0811587,15.2471724 L86.228192,15.3969655 C87.4951518,15.2471724 88.4353404,15.1172414 89.923812,14.9484138 L90.0964043,14.7751724 C90.2195275,14.3111724 90.3019761,13.9988966 90.3819512,13.7111724 L90.3819512,13.7111724 Z M85.5367233,17.2678621 L85.3668792,17.3977931 C85.1387715,19.0264828 84.8666912,20.1517241 84.5445921,21.4626207 L84.2755349,22.5390345 C84.1029425,23.182069 83.9641541,23.713931 83.8421302,24.1746207 C83.372723,25.8954483 83.1435159,26.6165517 82.6337089,28.2822069 L82.7615042,28.4113103 C83.1789688,28.3950345 83.5238787,28.3826207 83.842405,28.3715862 C84.8169472,28.3428966 85.4768106,28.3428966 86.8231959,28.3428966 L86.9968875,28.2204138 C87.074664,27.7004138 87.1252325,27.4195862 87.3690054,26.2397241 C87.5231843,25.6333793 87.6430095,25.0524138 87.7903177,24.4515862 L88.1904681,22.8377931 C88.5103686,21.5051034 88.8822116,20.1274483 89.2287705,18.8427586 C89.3758038,18.2788966 89.6506324,17.398069 89.7960167,16.8184828 L89.6767411,16.7086897 C87.9843466,16.9633103 87.4212229,17.0513103 85.5367233,17.2678621 L85.5367233,17.2678621 Z M10.6099312,15.7630345 C11.6251479,15.7630345 12.4419385,16.0446897 13.2098096,16.6231724 L13.4329704,16.5542069 C13.6333204,15.9194483 13.7495729,15.5635862 13.8806661,15.1831724 C13.9925214,14.8551724 14.1208663,14.5117241 14.3253388,13.9550345 L14.2486616,13.8027586 C14.1274622,13.7462069 14.0021404,13.6907586 13.8806661,13.6391724 C12.2830876,12.9555862 10.8028608,12.8827586 10.1116669,12.8827586 C8.92138432,12.8827586 5.20680116,13.1188966 2.84822224,16.8606897 C1.76100035,18.5790345 1.21381664,20.6686897 1.21381664,22.4733793 C1.21381664,26.1106207 3.42123984,28.6275862 7.85724804,28.6275862 C8.42751735,28.6275862 9.91516449,28.5597241 10.7322299,28.2987586 C10.8358402,28.2598621 10.9056467,28.2405517 11.004585,28.1969655 L11.2027364,28.001931 C11.573755,26.6907586 11.5973903,26.5616552 12.0439867,25.2297931 L11.8724937,25.142069 C10.8809121,25.7431724 9.64363384,25.809931 9.0480803,25.809931 C6.46798954,25.809931 5.42583954,24.3026207 5.42583954,22.2794483 C5.42583954,19.7448276 7.03853368,15.7630345 10.6099312,15.7630345 L10.6099312,15.7630345 Z M20.1255961,16.7081379 C19.7691434,16.7081379 19.4344022,16.726069 19.1235711,16.7674483 C16.4250292,17.1006897 15.2589315,18.7547586 14.7757829,19.5255172 C14.4006418,20.1271724 14.1002542,20.8187586 13.8806661,21.5307586 C13.5868744,22.4783448 13.4329704,23.4529655 13.4329704,24.302069 C13.4329704,25.16 13.5978675,25.8637241 13.8806661,26.4311724 C14.6853642,28.049931 16.45581,28.5828966 18.1416085,28.5828966 C18.3993978,28.5828966 18.7379866,28.5710345 19.1235711,28.5252414 C19.9903804,28.4212414 21.1015124,28.1415172 22.0823756,27.3798621 C24.1647518,25.768 24.7880631,22.6066207 24.7880631,20.9867586 C24.7880631,20.4742069 24.7644278,19.0107586 23.7483865,17.9754483 C22.5559053,16.7517241 20.7722678,16.7081379 20.1255961,16.7081379 L20.1255961,16.7081379 Z M19.6528909,25.3977931 C19.5264698,25.6388966 19.3599237,25.8993103 19.1235711,26.0929655 C18.9094796,26.2686897 18.6428959,26.3906207 18.2933139,26.3906207 C17.2486905,26.3906207 17.2486905,25.4612414 17.2486905,25.073931 C17.2486905,23.5274483 17.9934759,21.0529655 18.4400724,20.1271724 C18.570616,19.873931 18.7882802,19.4973793 19.1235711,19.2314483 C19.3599237,19.0402759 19.6583875,18.8984828 20.0272075,18.8984828 C20.9946041,18.8984828 20.9946041,19.872 20.9946041,20.2582069 C20.9943293,21.4626207 20.4235103,24.0198621 19.6528909,25.3977931 L19.6528909,25.3977931 Z M34.8492627,16.7517241 C34.303728,16.7517241 32.913645,16.9048276 31.3790022,18.1721379 L31.775305,16.8137931 L31.6497083,16.7084138 C29.8699184,17.0275862 29.496976,17.0758621 27.7364241,17.2678621 L27.5605338,17.3977931 C27.1925383,19.678069 26.7684778,21.353931 26.3213317,23.1202759 L25.9497635,24.5605517 C25.7766215,25.1211034 25.6273896,25.6805517 25.4814556,26.2397241 C25.3052905,26.9296552 25.0807555,27.8093793 24.9337222,28.2822069 L25.0345843,28.3889655 C26.6437057,28.3428966 27.1403209,28.3241379 28.8019345,28.3241379 L28.975901,28.1966897 C29.4964264,25.9343448 30.2401125,22.9246897 30.9596138,20.1070345 C31.4053857,19.5456552 32.0242997,19.3966897 32.3466736,19.3966897 C32.5679107,19.3966897 33.2099102,19.4427586 33.2099102,20.2372414 C33.2099102,20.5354483 33.1148195,21.0529655 32.790247,22.449931 L32.221077,24.670069 C31.8739685,26.0435862 31.7750302,26.4990345 31.2561538,28.2824828 L31.3787274,28.3892414 C32.9397537,28.3431724 33.3871747,28.3244138 35.1708122,28.3244138 L35.3464277,28.1969655 C35.4181579,27.7456552 35.4417932,27.6391724 35.6171338,26.8822069 C35.7408067,26.4093793 35.8411191,25.958069 35.9656165,25.4833103 L36.3102515,23.9969655 C36.5834311,22.9484138 36.8343496,21.8703448 37.1039565,20.7958621 C37.2262552,20.2590345 37.4015958,19.526069 37.4015958,18.9484138 C37.4018706,17.3757241 36.0879152,16.7517241 34.8492627,16.7517241 L34.8492627,16.7517241 Z" id="Shape"></path>
                <g transform="translate(0.481091, 0.000000)" id="Shape">
                    <path d="M145.979083,35.1517241 L145.968365,35.1517241 C145.047964,35.1517241 144.314996,35.8584828 144.314996,36.7644138 C144.314996,37.6678621 145.047964,38.3853793 145.968365,38.3853793 C146.888216,38.3853793 147.614038,37.6678621 147.614038,36.7644138 C147.614313,35.8582069 146.888216,35.1517241 145.979083,35.1517241 L145.979083,35.1517241 Z M145.979083,38.049931 C145.26288,38.049931 144.722567,37.4791724 144.722567,36.7644138 C144.722567,36.054069 145.26288,35.4766897 145.957921,35.4766897 L145.968365,35.4766897 C146.671926,35.4766897 147.203719,36.054069 147.203719,36.7735172 C147.203719,37.4788966 146.671926,38.0615172 145.979083,38.049931 L145.979083,38.049931 Z"></path>
                    <path d="M146.33746,36.8135172 L146.33746,36.7966897 C146.525442,36.7326897 146.671926,36.6077241 146.671926,36.4085517 C146.671926,36.2529655 146.604318,36.134069 146.506204,36.0662069 C146.397097,35.9848276 146.261332,35.937931 145.957921,35.937931 C145.691887,35.937931 145.48714,35.9674483 145.343679,35.9848276 L145.343679,37.5972414 L145.711675,37.5972414 L145.711675,36.9605517 L145.891138,36.9605517 C146.096435,36.9605517 146.19235,37.0394483 146.22423,37.2057931 C146.271776,37.4013793 146.303106,37.5417931 146.351476,37.5972414 L146.743107,37.5972414 C146.711501,37.5417931 146.671926,37.4535172 146.62548,37.2057931 C146.575736,36.9903448 146.497135,36.8626207 146.33746,36.8135172 L146.33746,36.8135172 Z M145.899932,36.696 L145.724867,36.696 L145.724867,36.232 C145.763068,36.2237241 145.830401,36.2146207 145.92824,36.2146207 C146.165142,36.2146207 146.271501,36.3111724 146.271501,36.4568276 C146.271776,36.6264828 146.105229,36.696 145.899932,36.696 L145.899932,36.696 Z"></path>
                    <path d="M150.800401,19.9646897 C150.800401,8.97048276 141.868197,0.00468965517 130.919026,0.00468965517 C119.965458,0.00468965517 111.03188,8.97048276 111.03188,19.9646897 C111.03188,30.9561379 119.965458,39.9241379 130.919026,39.9241379 C141.868197,39.9241379 150.800401,30.9561379 150.800401,19.9646897 L150.800401,19.9646897 Z M148.852966,19.9646897 C148.852966,22.4024828 148.370641,24.7285517 147.495312,26.8496552 L133.227861,33.1263448 L117.130601,22.2673103 L117.112463,22.2576552 C116.860994,22.0965517 116.695273,21.8477241 116.640307,21.5732414 C116.575997,21.2990345 116.623268,21.0005517 116.781844,20.7511724 L116.784867,20.7451034 C116.941794,20.4973793 117.18859,20.3329655 117.462319,20.273931 C117.739621,20.2157241 118.034512,20.2587586 118.288454,20.4176552 L118.321983,20.4411034 L118.365681,20.4634483 L119.051378,20.808 L120.512092,21.5437241 L123.667949,23.1318621 L125.487589,24.0463448 C125.46148,24.1048276 125.432623,24.1624828 125.403217,24.2195862 C125.366115,24.2896552 125.341105,24.3605517 125.307576,24.432 C125.186926,24.7023448 125.082217,24.9641379 125.011036,25.1867586 L124.806838,25.8758621 L125.435097,26.2121379 L132.724375,30.1150345 L133.093745,30.312 L133.474657,30.1550345 L140.582824,27.1274483 L139.822923,25.6606897 L133.203951,28.3718621 L133.19708,28.3668966 L133.180041,28.3782069 L131.640176,27.5533793 L126.939508,25.0951724 L126.958197,25.0471724 L126.941157,25.0355862 L126.958197,25.0002759 C126.987328,24.9478621 127.018109,24.8951724 127.042844,24.8361379 C127.160745,24.5657931 127.291564,24.3376552 127.432826,24.1384828 C127.917348,23.4598621 128.565394,23.1881379 129.555876,23.2835862 C130.690094,23.6077241 131.820464,24.2195862 132.953582,24.2286897 C133.164376,24.2286897 133.37407,24.2168276 133.585413,24.169931 L133.497193,24.1542069 C134.754534,23.9070345 135.673011,23.1183448 136.201232,22.5453793 C136.457647,22.2642759 136.629689,22.0369655 136.687403,21.9517241 C136.938597,21.6441379 137.200508,21.3768276 137.465993,21.1310345 C138.364407,20.3015172 139.308169,19.8137931 140.14832,19.5365517 C140.692755,19.3566897 141.193768,19.2565517 141.608759,19.209931 C142.318641,19.1304828 142.782002,19.1856552 142.786949,19.1856552 L142.847961,19.1875862 L142.881215,19.1875862 L148.834277,19.1875862 C148.844171,19.4474483 148.852966,19.7070345 148.852966,19.9646897 L148.852966,19.9646897 Z M123.296381,16.432 C123.700379,16.432 125.019831,16.4077241 126.082043,16.08 L126.082043,17.2273103 C125.771762,17.4104828 124.793372,17.6849655 123.296381,17.6849655 C121.800489,17.6849655 120.82045,17.4104828 120.511817,17.2273103 L120.511817,16.08 C121.575404,16.4077241 122.893207,16.432 123.296381,16.432 L123.296381,16.432 Z M120.960612,14.4137931 C120.960612,14.126069 122.00606,13.8915862 123.296381,13.8915862 C124.587525,13.8915862 125.631874,14.126069 125.631874,14.4137931 C125.631874,14.6998621 124.587525,14.9354483 123.296381,14.9354483 C122.00606,14.9354483 120.960612,14.6998621 120.960612,14.4137931 L120.960612,14.4137931 Z M123.296381,19.1718621 C123.700379,19.1718621 125.019831,19.1456552 126.082043,18.8146207 L126.082043,19.9456552 C125.771762,20.1293793 124.793372,20.4027586 123.296381,20.4027586 C122.769534,20.4027586 122.312494,20.3677241 121.921688,20.3133793 L120.851505,19.7583448 L120.511817,19.5886897 L120.511817,18.8146207 C121.575404,19.1456552 122.893207,19.1718621 123.296381,19.1718621 L123.296381,19.1718621 Z M126.082043,21.5346207 L126.082043,22.4830345 L124.769187,21.7983448 C125.19737,21.7475862 125.659357,21.6642759 126.082043,21.5346207 L126.082043,21.5346207 Z M130.330069,10.9241379 C130.734891,10.9241379 132.052694,10.8971034 133.115456,10.5685517 L133.115456,11.7202759 C132.805999,11.9026207 131.82706,12.174069 130.330069,12.174069 C128.832253,12.174069 127.854962,11.9026207 127.544681,11.7202759 L127.544681,10.5685517 C128.606619,10.8968276 129.928269,10.9241379 130.330069,10.9241379 L130.330069,10.9241379 Z M127.992377,8.8697931 C127.992377,8.58151724 129.039199,8.34648276 130.330069,8.34648276 C131.620389,8.34648276 132.666661,8.58151724 132.666661,8.8697931 C132.666661,9.1577931 131.620389,9.39172414 130.330069,9.39172414 C129.039199,9.39172414 127.992377,9.15806897 127.992377,8.8697931 L127.992377,8.8697931 Z M130.330069,13.6662069 C130.734891,13.6662069 132.052694,13.6391724 133.115456,13.3103448 L133.115456,14.4364138 C132.805999,14.6198621 131.82706,14.894069 130.330069,14.894069 C128.832253,14.894069 127.854962,14.6198621 127.544681,14.4364138 L127.544681,13.3103448 C128.606619,13.6388966 129.928269,13.6662069 130.330069,13.6662069 L130.330069,13.6662069 Z M130.330069,16.3831724 C130.734891,16.3831724 132.052694,16.353931 133.115456,16.0248276 L133.115456,17.1547586 C132.805999,17.3384828 131.82706,17.6124138 130.330069,17.6124138 C128.832253,17.6124138 127.854962,17.3384828 127.544681,17.1547586 L127.544681,16.0248276 C128.606619,16.353931 129.928269,16.3831724 130.330069,16.3831724 L130.330069,16.3831724 Z M130.330069,19.1012414 C130.734891,19.1012414 132.052694,19.0725517 133.115456,18.7467586 L133.115456,19.873931 C132.805999,20.057931 131.82706,20.3296552 130.330069,20.3296552 C128.832253,20.3296552 127.854962,20.057931 127.544681,19.873931 L127.544681,18.7467586 C128.606619,19.0728276 129.928269,19.1012414 130.330069,19.1012414 L130.330069,19.1012414 Z M133.115456,21.4615172 L133.115456,22.6148966 C133.089073,22.632 133.050872,22.6474483 133.014045,22.6645517 C132.469059,22.6115862 131.660514,22.1326897 130.631556,21.8129655 C131.2021,21.8005517 132.240402,21.7329655 133.115456,21.4615172 L133.115456,21.4615172 Z M137.361558,14.4284138 C137.764457,14.4284138 139.083634,14.3988966 140.14832,14.0703448 L140.14832,15.2198621 C139.839138,15.4052414 138.859923,15.6766897 137.361558,15.6766897 C135.865941,15.6766897 134.886177,15.4052414 134.578094,15.2198621 L134.578094,14.0703448 C135.641681,14.3988966 136.959209,14.4284138 137.361558,14.4284138 L137.361558,14.4284138 Z M135.02524,12.4137931 C135.02524,12.126069 136.073436,11.8924138 137.361558,11.8924138 C138.651878,11.8924138 139.700349,12.1257931 139.700349,12.4137931 C139.700349,12.7009655 138.652153,12.9368276 137.361558,12.9368276 C136.073436,12.9368276 135.02524,12.7009655 135.02524,12.4137931 L135.02524,12.4137931 Z M137.361558,17.1649655 C137.764457,17.1649655 139.083634,17.1365517 140.14832,16.8091034 L140.14832,17.7213793 C139.716014,17.8342069 139.258974,17.984 138.787094,18.1914483 C138.723883,18.2297931 138.652153,18.2791724 138.583171,18.3268966 C138.224245,18.3663448 137.822995,18.3953103 137.361833,18.3953103 C135.866216,18.3953103 134.886452,18.1227586 134.578369,17.9368276 L134.578369,16.8091034 C135.641681,17.1365517 136.959209,17.1649655 137.361558,17.1649655 L137.361558,17.1649655 Z M136.683006,19.862069 C136.269939,20.2231724 135.851375,20.6016552 135.447652,20.9575172 C135.02524,20.8689655 134.725677,20.7646897 134.578094,20.6805517 L134.578094,19.5271724 C135.284678,19.7448276 136.094873,19.8295172 136.683006,19.862069 L136.683006,19.862069 Z M130.919301,37.9674483 C125.965516,37.9674483 121.477565,35.9561379 118.234038,32.6998621 C114.989412,29.438069 112.979865,24.9326897 112.979865,19.9646897 C112.979865,14.9922759 114.989412,10.4926897 118.234038,7.23475862 C121.477565,3.976 125.965516,1.96055172 130.919301,1.96055172 C135.870063,1.96055172 140.354991,3.97572414 143.600991,7.23475862 C146.282494,9.92772414 148.123021,13.4758621 148.678724,17.4364138 L142.909248,17.4364138 C142.739404,17.4217931 142.260652,17.3991724 141.609309,17.4609655 L141.609309,15.4262069 L141.609309,15.4066207 L141.609309,12.6910345 C141.609309,12.6557241 141.594193,12.6303448 141.592269,12.5944828 C141.605461,12.5296552 141.609309,12.4673103 141.609309,12.4137931 C141.609309,10.7616552 138.071715,10.6775172 137.362108,10.6775172 C136.451875,10.6775172 135.400381,10.7782069 134.578644,11.0306207 L134.578644,9.18703448 C134.578644,9.14648276 134.559131,9.11172414 134.553634,9.07117241 C134.567925,9 134.574246,8.92882759 134.574246,8.87117241 C134.574246,7.21517241 131.039951,7.13186207 130.330618,7.13186207 C128.899311,7.13186207 127.123094,7.37931034 126.428877,8.07613793 C126.142231,8.36496552 126.083967,8.66896552 126.086715,8.87117241 C126.086715,8.936 126.099632,9 126.11035,9.05986207 C126.101281,9.10289655 126.086715,9.14262069 126.086715,9.18703448 L126.086715,11.9089655 L126.086715,11.9274483 L126.086715,13.0422069 C125.02038,12.7122759 123.700928,12.6813793 123.296381,12.6813793 C121.865623,12.6813793 120.087207,12.9304828 119.397662,13.6308966 C119.108268,13.9153103 119.051653,14.2198621 119.051653,14.4212414 C119.051653,14.4788966 119.06512,14.5296552 119.071441,14.5873103 C119.066494,14.6226207 119.051653,14.6551724 119.051653,14.6954483 L119.051653,17.4148966 L119.051653,17.4344828 L119.051653,18.8535172 C118.432739,18.5136552 117.738797,18.4171034 117.093499,18.5627586 C116.385541,18.7164138 115.737495,19.1456552 115.315908,19.8082759 L115.31316,19.8082759 C114.891298,20.4714483 114.775595,21.2394483 114.931698,21.9462069 C115.085877,22.6526897 115.508013,23.2962759 116.157433,23.7211034 L132.653469,34.8449655 L133.050872,35.1166897 L133.488948,34.9255172 L146.251988,29.3064828 C145.506653,30.5395862 144.610437,31.6797241 143.600991,32.7001379 C140.354991,35.9561379 135.869788,37.9674483 130.919301,37.9674483 L130.919301,37.9674483 Z"></path>
                    <path d="M66.2199799,16.7081379 C65.9435024,16.7081379 65.5441764,16.7142069 65.0780672,16.7765517 C63.8105577,16.9542069 62.0285692,17.561931 60.7398979,19.6554483 C60.4494041,20.1271724 60.1591851,20.7133793 59.925306,21.4286897 C59.720009,22.0551724 59.5589595,22.7782069 59.4759613,23.6135172 C59.4520512,23.873931 59.4242935,24.1486897 59.4242935,24.4317241 C59.4242935,25.294069 59.6081538,25.9848276 59.925306,26.528 C60.3589855,27.2913103 61.0496297,27.7834483 61.8576258,28.1084138 C62.7975395,28.4753103 63.8388651,28.5828966 64.8549063,28.5828966 C64.9271863,28.5828966 65.0038634,28.5806897 65.0780672,28.5806897 C65.9454262,28.566069 66.8064641,28.4568276 67.6317744,28.2201379 L67.8285516,28.0195862 C68.1292141,26.9451034 68.2509632,26.5611034 68.5730623,25.616 L68.3512756,25.5268966 C67.5564713,25.9988966 66.6869137,26.1950345 65.6986301,26.1950345 C65.5862252,26.1950345 65.3597665,26.1950345 65.0780672,26.1605517 C64.5328072,26.0995862 63.7998394,25.9097931 63.3925434,25.3566897 C63.1451977,25.0135172 63.0949041,24.6022069 63.0949041,24.2369655 C63.0949041,23.848 63.1451977,23.5486897 63.2202259,23.2697931 C63.6047111,23.2626207 64.3104709,23.254069 65.078342,23.2526897 C66.2304234,23.2471724 67.5193695,23.2471724 68.1044795,23.2471724 L69.2400713,23.2471724 L69.439322,23.1197241 C70.0376238,21.5685517 70.0620836,20.1266207 70.0620836,19.976 C70.0615339,17.8071724 68.5216693,16.7081379 66.2199799,16.7081379 L66.2199799,16.7081379 Z M66.3178189,21.2474483 L65.0780672,21.2664828 L63.5893207,21.2868966 C63.8657983,20.3437241 64.2085095,19.7233103 64.5328072,19.3271724 C64.6240503,19.225931 64.8079107,19.0262069 65.0780672,18.8957241 C65.2470867,18.8154483 65.4402912,18.7531034 65.6733459,18.7531034 C66.4162075,18.7531034 66.5618667,19.3522759 66.5618667,19.7842759 C66.5618667,20.1271724 66.4898616,20.6684138 66.3178189,21.2474483 L66.3178189,21.2474483 Z M67.8788453,12.1489655 L67.0364957,12.1489655 L66.8622543,12.2571034 C66.0583807,13.6524138 65.7777807,14.1053793 65.0780672,15.1506207 L64.6820392,15.7404138 L64.7554184,15.8731034 L65.078342,15.8615172 C65.8868877,15.8452414 66.0971315,15.8452414 66.9128228,15.8452414 L67.0862396,15.7790345 C68.6236307,14.1042759 69.0163608,13.6971034 70.4309035,12.233931 L70.3806099,12.1070345 C69.2150619,12.1489655 68.7231187,12.1489655 67.8788453,12.1489655 L67.8788453,12.1489655 Z M46.2649512,25.8093793 C43.6881583,25.8093793 42.6468328,24.302069 42.6468328,22.2788966 C42.6468328,19.7448276 44.2581528,15.7630345 47.8237789,15.7630345 C48.8425685,15.7630345 49.6588094,16.0446897 50.4294287,16.6231724 L50.5921272,16.5809655 L50.655063,16.5608276 C51.0255319,15.3754483 51.095888,15.1561379 51.5460573,13.9550345 L51.4724032,13.8027586 C51.1758632,13.6606897 50.877949,13.5387586 50.5921272,13.4364138 C49.1929749,12.9390345 47.9491007,12.8824828 47.3312861,12.8824828 C46.1426524,12.8824828 42.4261455,13.1186207 40.07004,16.8604138 C38.9762222,18.5787586 38.4348099,20.6684138 38.4348099,22.4731034 C38.4348099,26.1103448 40.6386604,28.6273103 45.0735692,28.6273103 C45.6493351,28.6273103 47.1339591,28.5594483 47.9507497,28.2984828 C48.0510621,28.2595862 48.1263652,28.2402759 48.224479,28.1966897 L48.4220807,28.0016552 C48.7985959,26.6904828 48.8172842,26.5613793 49.2680031,25.2295172 L49.0915632,25.1417931 C48.1005313,25.7423448 46.8574816,25.8093793 46.2649512,25.8093793 L46.2649512,25.8093793 Z M59.925306,18.3053793 C60.0915773,17.9417931 60.2611465,17.5817931 60.4199975,17.2041379 L60.3697038,16.9886897 C60.2468554,16.9268966 60.1245567,16.8488276 59.925306,16.8008276 C59.7969611,16.7743448 59.6375605,16.7514483 59.4242935,16.7514483 C57.6931482,16.7514483 56.8513483,18.0424828 55.7841889,19.6995862 C56.181591,18.1944828 56.2755824,17.8706207 56.6018039,16.817931 L56.4778562,16.6871724 C54.793157,16.9886897 54.3226505,17.0510345 52.508507,17.2675862 L52.3633975,17.3757241 C52.0652085,19.201931 51.939337,19.8910345 51.0516406,23.2697931 L50.5924021,25.0022069 L50.5547505,25.1412414 C50.4057935,25.616 49.8085909,27.7227586 49.6851929,28.1293793 L49.6365482,28.281931 L49.7615952,28.3886897 L50.5924021,28.3644138 C51.7326659,28.3426207 52.2474198,28.3238621 53.5528556,28.3238621 L53.7273717,28.1964138 C53.8513194,27.5928276 53.877703,27.4193103 54.1734185,26.3026207 L54.6922949,24.1486897 C55.1900095,22.0852414 55.634957,20.2582069 57.6670395,20.2582069 C58.3615313,20.2582069 58.6586211,20.4736552 58.8323127,20.5804138 L59.0062792,20.5351724 C59.2047054,19.9994483 59.4245683,19.4612414 59.654325,18.9252414 C59.7419953,18.7188966 59.8282915,18.5122759 59.925306,18.3053793 L59.925306,18.3053793 Z M106.917421,17.9754483 C105.726314,16.7517241 103.941303,16.7084138 103.294631,16.7084138 C102.941476,16.7084138 102.606185,16.7263448 102.295904,16.7677241 C99.5968123,17.1073103 98.4307146,18.7550345 97.937947,19.5257931 C97.5136116,20.222069 97.1788704,21.0430345 96.9537858,21.870069 C96.7229298,22.705931 96.6044787,23.5550345 96.6044787,24.302069 C96.6044787,25.0548966 96.7276019,25.6882759 96.9537858,26.2132414 C97.7048923,28.0063448 99.550916,28.5828966 101.313667,28.5828966 C101.569532,28.5828966 101.907571,28.5710345 102.295904,28.5252414 C103.156942,28.4212414 104.274395,28.1415172 105.253059,27.3798621 C107.33681,25.768 107.956548,22.6066207 107.956548,20.9867586 C107.956548,20.473931 107.934012,19.0104828 106.917421,17.9754483 L106.917421,17.9754483 Z M102.825224,25.3977931 C102.696054,25.6388966 102.533081,25.8993103 102.295904,26.0929655 C102.081812,26.2686897 101.811381,26.3906207 101.463998,26.3906207 C100.41855,26.3906207 100.41855,25.4612414 100.41855,25.073931 C100.41855,23.5274483 101.165534,21.0529655 101.61323,20.1271724 C101.737452,19.873931 101.959514,19.4973793 102.295904,19.2314483 C102.532806,19.0402759 102.825224,18.8984828 103.199265,18.8984828 C104.16144,18.8984828 104.16144,19.872 104.16144,20.2582069 C104.16144,21.4626207 103.593919,24.0198621 102.825224,25.3977931 L102.825224,25.3977931 Z M94.8694858,19.3073103 C95.5375941,19.3073103 95.9358207,19.3073103 96.4588195,19.3271724 L96.6289384,19.2016552 C96.7625051,18.7111724 96.8471523,18.4171034 96.9537858,18.0937931 C97.0433799,17.8234483 97.1395699,17.5255172 97.3000698,17.0753103 L97.2233927,16.9470345 L96.9540606,16.9486897 C96.3585071,16.9707586 96.0735099,16.9886897 95.4425034,16.9886897 L95.9600057,15.1558621 L96.4590944,13.4383448 L96.3585071,13.3291034 C94.6707848,13.7395862 94.1513587,13.8697931 92.5183273,14.1917241 L92.3427118,14.3202759 C92.0678832,15.5484138 91.9967026,15.8038621 91.6990633,16.9633103 C91.1535285,16.9633103 91.1032349,16.9633103 90.5590743,16.9470345 L90.4076437,17.0753103 C90.1740394,17.9624828 90.1078058,18.1845517 89.9008598,18.8438621 L89.786806,19.2016552 L89.8901415,19.3271724 L89.9008598,19.3271724 C90.4620598,19.2882759 90.5340649,19.2882759 91.1535285,19.2882759 L90.0127151,23.3106207 L89.9011347,23.7401379 C89.6842949,24.5724138 89.4652565,25.4529655 89.4652565,26.129931 C89.4652565,26.7508966 89.6326271,27.2082759 89.9011347,27.5508966 C90.0621842,27.7522759 90.2608853,27.913931 90.4848706,28.0457931 C90.9070073,28.2982069 91.5979263,28.5188966 92.5892331,28.5188966 C92.9849862,28.5188966 93.7294969,28.4971034 94.3995289,28.3238621 L94.571022,28.1964138 C94.8205663,27.2273103 94.8966939,26.9453793 95.2165943,25.9988966 L95.0909977,25.9577931 C94.6982676,26.0433103 94.4481736,26.0433103 94.2000034,26.0433103 C93.9545815,26.0433103 93.4084971,25.8957241 93.4084971,25.2295172 C93.4084971,24.928 93.535193,24.3685517 93.8814771,23.0744828 L94.8694858,19.3073103 L94.8694858,19.3073103 Z M83.3610388,16.0670345 L83.4918572,15.5713103 C83.7691593,14.6444138 84.112695,13.353931 84.5587418,12.0215172 L84.4358934,11.8910345 C83.9934194,11.9646897 83.6529068,12.0215172 83.3613136,12.0692414 C82.4464093,12.2190345 81.9929421,12.286069 80.4926529,12.5131034 L80.3189612,12.648 C80.2216719,13.0292414 79.8740137,14.7748966 79.7748006,15.1387586 L79.3271048,16.9633103 C78.807404,16.9470345 78.4344616,16.9271724 78.0689396,16.9271724 C77.6206941,16.9271724 77.1416679,16.9473103 76.652473,17.0173793 C75.6149951,17.1735172 74.5096346,17.5622069 73.4790274,18.4488276 C71.5467076,20.0874483 70.577662,22.9244138 70.577662,25.0358621 C70.577662,25.4223448 70.6070686,25.7842759 70.704358,26.1746207 C70.8255574,26.8173793 71.1754142,27.8093793 72.4135169,28.2982069 C72.908758,28.4971034 73.4086712,28.5409655 73.7280221,28.5409655 C74.9191291,28.5409655 75.846126,28.1208276 76.6527479,27.3864828 C76.7041408,27.3434483 76.7563582,27.2957241 76.8019798,27.249931 L76.6527479,27.7588966 L76.5024166,28.2593103 L76.6255398,28.3886897 L76.6527479,28.3886897 C78.0966973,28.3238621 78.5435685,28.3238621 80.1466437,28.3238621 L80.2958756,28.1964138 C80.6204482,26.3906207 81.5117173,22.8808276 82.1792759,20.4088276 L83.3610388,16.0670345 L83.3610388,16.0670345 Z M77.0976953,25.3566897 C77.0825798,25.4529655 76.8792066,25.6604138 76.6521982,25.8245517 C76.5711238,25.8877241 76.4840031,25.9373793 76.4054021,25.9757241 C76.2314356,26.0430345 76.0060762,26.110069 75.7590053,26.110069 C74.6190163,26.110069 74.6190163,24.9682759 74.6190163,24.6902069 C74.6190163,23.5986207 75.3341203,20.9533793 76.6521982,19.8082759 C76.7654276,19.7103448 76.8792066,19.6201379 76.9954591,19.5453793 C77.5951351,19.1817931 78.0914755,19.201931 78.688678,19.2466207 L77.0976953,25.3566897 L77.0976953,25.3566897 Z M89.9008598,13.7111724 C90.0179368,13.2893793 90.1303417,12.9222069 90.3381121,12.2342069 L90.1663442,12.0816552 L89.9008598,12.12 C88.3851802,12.3282759 87.942981,12.3765517 86.4435162,12.5335172 L86.2176071,12.6866207 C85.9974694,13.7395862 85.9238154,13.9988966 85.6000673,15.2471724 L85.7471006,15.3969655 C87.0140604,15.2471724 87.954249,15.1172414 89.4427206,14.9484138 L89.6153129,14.7751724 C89.7384361,14.3111724 89.8208847,13.9988966 89.9008598,13.7111724 L89.9008598,13.7111724 Z M85.0556319,17.2678621 L84.8857878,17.3977931 C84.6576801,19.0264828 84.3855998,20.1517241 84.0635007,21.4626207 L83.7944435,22.5390345 C83.6218511,23.182069 83.4830627,23.713931 83.3610388,24.1746207 C82.8916316,25.8954483 82.6624245,26.6165517 82.1526175,28.2822069 L82.2804128,28.4113103 C82.6978774,28.3950345 83.0427873,28.3826207 83.3613136,28.3715862 C84.3358558,28.3428966 84.9957192,28.3428966 86.3421045,28.3428966 L86.5157961,28.2204138 C86.5935726,27.7004138 86.6441411,27.4195862 86.887914,26.2397241 C87.0420929,25.6333793 87.1619181,25.0524138 87.3092263,24.4515862 L87.7093767,22.8377931 C88.0292772,21.5051034 88.4011202,20.1274483 88.7476791,18.8427586 C88.8947124,18.2788966 89.169541,17.398069 89.3149253,16.8184828 L89.1956497,16.7086897 C87.5032552,16.9633103 86.9401315,17.0513103 85.0556319,17.2678621 L85.0556319,17.2678621 Z M10.1288398,15.7630345 C11.1440565,15.7630345 11.9608471,16.0446897 12.7287182,16.6231724 L12.951879,16.5542069 C13.152229,15.9194483 13.2684815,15.5635862 13.3995748,15.1831724 C13.51143,14.8551724 13.6397749,14.5117241 13.8442474,13.9550345 L13.7675702,13.8027586 C13.6463708,13.7462069 13.521049,13.6907586 13.3995748,13.6391724 C11.8019962,12.9555862 10.3217694,12.8827586 9.63057553,12.8827586 C8.44029292,12.8827586 4.72570976,13.1188966 2.36713084,16.8606897 C1.27990896,18.5790345 0.732725242,20.6686897 0.732725242,22.4733793 C0.732725242,26.1106207 2.94014844,28.6275862 7.37615664,28.6275862 C7.94642596,28.6275862 9.43407309,28.5597241 10.2511385,28.2987586 C10.3547489,28.2598621 10.4245553,28.2405517 10.5234936,28.1969655 L10.721645,28.001931 C11.0926636,26.6907586 11.1162989,26.5616552 11.5628953,25.2297931 L11.3914023,25.142069 C10.3998207,25.7431724 9.16254245,25.809931 8.5669889,25.809931 C5.98689814,25.809931 4.94474814,24.3026207 4.94474814,22.2794483 C4.94474814,19.7448276 6.55744228,15.7630345 10.1288398,15.7630345 L10.1288398,15.7630345 Z M19.6445047,16.7081379 C19.288052,16.7081379 18.9533108,16.726069 18.6424797,16.7674483 C15.9439378,17.1006897 14.7778401,18.7547586 14.2946915,19.5255172 C13.9195504,20.1271724 13.6191628,20.8187586 13.3995748,21.5307586 C13.105783,22.4783448 12.951879,23.4529655 12.951879,24.302069 C12.951879,25.16 13.1167761,25.8637241 13.3995748,26.4311724 C14.2042728,28.049931 15.9747186,28.5828966 17.6605171,28.5828966 C17.9183064,28.5828966 18.2568952,28.5710345 18.6424797,28.5252414 C19.509289,28.4212414 20.620421,28.1415172 21.6012842,27.3798621 C23.6836604,25.768 24.3069717,22.6066207 24.3069717,20.9867586 C24.3069717,20.4742069 24.2833364,19.0107586 23.2672951,17.9754483 C22.0748139,16.7517241 20.2911764,16.7081379 19.6445047,16.7081379 L19.6445047,16.7081379 Z M19.1717995,25.3977931 C19.0453784,25.6388966 18.8788323,25.8993103 18.6424797,26.0929655 C18.4283882,26.2686897 18.1618045,26.3906207 17.8122225,26.3906207 C16.7675991,26.3906207 16.7675991,25.4612414 16.7675991,25.073931 C16.7675991,23.5274483 17.5123845,21.0529655 17.958981,20.1271724 C18.0895246,19.873931 18.3071888,19.4973793 18.6424797,19.2314483 C18.8788323,19.0402759 19.1772961,18.8984828 19.5461161,18.8984828 C20.5135127,18.8984828 20.5135127,19.872 20.5135127,20.2582069 C20.5132379,21.4626207 19.9424189,24.0198621 19.1717995,25.3977931 L19.1717995,25.3977931 Z M34.3681713,16.7517241 C33.8226366,16.7517241 32.4325536,16.9048276 30.8979108,18.1721379 L31.2942136,16.8137931 L31.168617,16.7084138 C29.388827,17.0275862 29.0158846,17.0758621 27.2553327,17.2678621 L27.0794424,17.3977931 C26.7114469,19.678069 26.2873864,21.353931 25.8402403,23.1202759 L25.4686721,24.5605517 C25.2955301,25.1211034 25.1462982,25.6805517 25.0003642,26.2397241 C24.8241991,26.9296552 24.5996641,27.8093793 24.4526308,28.2822069 L24.5534929,28.3889655 C26.1626143,28.3428966 26.6592295,28.3241379 28.3208431,28.3241379 L28.4948096,28.1966897 C29.015335,25.9343448 29.7590211,22.9246897 30.4785224,20.1070345 C30.9242943,19.5456552 31.5432083,19.3966897 31.8655822,19.3966897 C32.0868193,19.3966897 32.7288188,19.4427586 32.7288188,20.2372414 C32.7288188,20.5354483 32.6337281,21.0529655 32.3091556,22.449931 L31.7399856,24.670069 C31.3928771,26.0435862 31.2939388,26.4990345 30.7750624,28.2824828 L30.897636,28.3892414 C32.4586623,28.3431724 32.9060833,28.3244138 34.6897208,28.3244138 L34.8653363,28.1969655 C34.9370665,27.7456552 34.9607018,27.6391724 35.1360424,26.8822069 C35.2597153,26.4093793 35.3600277,25.958069 35.4845251,25.4833103 L35.8291601,23.9969655 C36.1023397,22.9484138 36.3532582,21.8703448 36.6228651,20.7958621 C36.7451638,20.2590345 36.9205044,19.526069 36.9205044,18.9484138 C36.9207792,17.3757241 35.6068238,16.7517241 34.3681713,16.7517241 L34.3681713,16.7517241 Z"></path>
                    <path d="M150.800401,19.9646897 C150.800401,8.97048276 141.868197,0.00468965517 130.919026,0.00468965517 C119.965458,0.00468965517 111.03188,8.97048276 111.03188,19.9646897 C111.03188,30.9561379 119.965458,39.9241379 130.919026,39.9241379 C141.868197,39.9241379 150.800401,30.9561379 150.800401,19.9646897 L150.800401,19.9646897 Z M148.852966,19.9646897 C148.852966,22.4024828 148.370641,24.7285517 147.495312,26.8496552 L133.227861,33.1263448 L117.130601,22.2673103 L117.112463,22.2576552 C116.860994,22.0965517 116.695273,21.8477241 116.640307,21.5732414 C116.575997,21.2990345 116.623268,21.0005517 116.781844,20.7511724 L116.784867,20.7451034 C116.941794,20.4973793 117.18859,20.3329655 117.462319,20.273931 C117.739621,20.2157241 118.034512,20.2587586 118.288454,20.4176552 L118.321983,20.4411034 L118.365681,20.4634483 L119.051378,20.808 L120.512092,21.5437241 L123.667949,23.1318621 L125.487589,24.0463448 C125.46148,24.1048276 125.432623,24.1624828 125.403217,24.2195862 C125.366115,24.2896552 125.341105,24.3605517 125.307576,24.432 C125.186926,24.7023448 125.082217,24.9641379 125.011036,25.1867586 L124.806838,25.8758621 L125.435097,26.2121379 L132.724375,30.1150345 L133.093745,30.312 L133.474657,30.1550345 L140.582824,27.1274483 L139.822923,25.6606897 L133.203951,28.3718621 L133.19708,28.3668966 L133.180041,28.3782069 L131.640176,27.5533793 L126.939508,25.0951724 L126.958197,25.0471724 L126.941157,25.0355862 L126.958197,25.0002759 C126.987328,24.9478621 127.018109,24.8951724 127.042844,24.8361379 C127.160745,24.5657931 127.291564,24.3376552 127.432826,24.1384828 C127.917348,23.4598621 128.565394,23.1881379 129.555876,23.2835862 C130.690094,23.6077241 131.820464,24.2195862 132.953582,24.2286897 C133.164376,24.2286897 133.37407,24.2168276 133.585413,24.169931 L133.497193,24.1542069 C134.754534,23.9070345 135.673011,23.1183448 136.201232,22.5453793 C136.457647,22.2642759 136.629689,22.0369655 136.687403,21.9517241 C136.938597,21.6441379 137.200508,21.3768276 137.465993,21.1310345 C138.364407,20.3015172 139.308169,19.8137931 140.14832,19.5365517 C140.692755,19.3566897 141.193768,19.2565517 141.608759,19.209931 C142.318641,19.1304828 142.782002,19.1856552 142.786949,19.1856552 L142.847961,19.1875862 L142.881215,19.1875862 L148.834277,19.1875862 C148.844171,19.4474483 148.852966,19.7070345 148.852966,19.9646897 L148.852966,19.9646897 Z M123.296381,16.432 C123.700379,16.432 125.019831,16.4077241 126.082043,16.08 L126.082043,17.2273103 C125.771762,17.4104828 124.793372,17.6849655 123.296381,17.6849655 C121.800489,17.6849655 120.82045,17.4104828 120.511817,17.2273103 L120.511817,16.08 C121.575404,16.4077241 122.893207,16.432 123.296381,16.432 L123.296381,16.432 Z M120.960612,14.4137931 C120.960612,14.126069 122.00606,13.8915862 123.296381,13.8915862 C124.587525,13.8915862 125.631874,14.126069 125.631874,14.4137931 C125.631874,14.6998621 124.587525,14.9354483 123.296381,14.9354483 C122.00606,14.9354483 120.960612,14.6998621 120.960612,14.4137931 L120.960612,14.4137931 Z M123.296381,19.1718621 C123.700379,19.1718621 125.019831,19.1456552 126.082043,18.8146207 L126.082043,19.9456552 C125.771762,20.1293793 124.793372,20.4027586 123.296381,20.4027586 C122.769534,20.4027586 122.312494,20.3677241 121.921688,20.3133793 L120.851505,19.7583448 L120.511817,19.5886897 L120.511817,18.8146207 C121.575404,19.1456552 122.893207,19.1718621 123.296381,19.1718621 L123.296381,19.1718621 Z M126.082043,21.5346207 L126.082043,22.4830345 L124.769187,21.7983448 C125.19737,21.7475862 125.659357,21.6642759 126.082043,21.5346207 L126.082043,21.5346207 Z M130.330069,10.9241379 C130.734891,10.9241379 132.052694,10.8971034 133.115456,10.5685517 L133.115456,11.7202759 C132.805999,11.9026207 131.82706,12.174069 130.330069,12.174069 C128.832253,12.174069 127.854962,11.9026207 127.544681,11.7202759 L127.544681,10.5685517 C128.606619,10.8968276 129.928269,10.9241379 130.330069,10.9241379 L130.330069,10.9241379 Z M127.992377,8.8697931 C127.992377,8.58151724 129.039199,8.34648276 130.330069,8.34648276 C131.620389,8.34648276 132.666661,8.58151724 132.666661,8.8697931 C132.666661,9.1577931 131.620389,9.39172414 130.330069,9.39172414 C129.039199,9.39172414 127.992377,9.15806897 127.992377,8.8697931 L127.992377,8.8697931 Z M130.330069,13.6662069 C130.734891,13.6662069 132.052694,13.6391724 133.115456,13.3103448 L133.115456,14.4364138 C132.805999,14.6198621 131.82706,14.894069 130.330069,14.894069 C128.832253,14.894069 127.854962,14.6198621 127.544681,14.4364138 L127.544681,13.3103448 C128.606619,13.6388966 129.928269,13.6662069 130.330069,13.6662069 L130.330069,13.6662069 Z M130.330069,16.3831724 C130.734891,16.3831724 132.052694,16.353931 133.115456,16.0248276 L133.115456,17.1547586 C132.805999,17.3384828 131.82706,17.6124138 130.330069,17.6124138 C128.832253,17.6124138 127.854962,17.3384828 127.544681,17.1547586 L127.544681,16.0248276 C128.606619,16.353931 129.928269,16.3831724 130.330069,16.3831724 L130.330069,16.3831724 Z M130.330069,19.1012414 C130.734891,19.1012414 132.052694,19.0725517 133.115456,18.7467586 L133.115456,19.873931 C132.805999,20.057931 131.82706,20.3296552 130.330069,20.3296552 C128.832253,20.3296552 127.854962,20.057931 127.544681,19.873931 L127.544681,18.7467586 C128.606619,19.0728276 129.928269,19.1012414 130.330069,19.1012414 L130.330069,19.1012414 Z M133.115456,21.4615172 L133.115456,22.6148966 C133.089073,22.632 133.050872,22.6474483 133.014045,22.6645517 C132.469059,22.6115862 131.660514,22.1326897 130.631556,21.8129655 C131.2021,21.8005517 132.240402,21.7329655 133.115456,21.4615172 L133.115456,21.4615172 Z M137.361558,14.4284138 C137.764457,14.4284138 139.083634,14.3988966 140.14832,14.0703448 L140.14832,15.2198621 C139.839138,15.4052414 138.859923,15.6766897 137.361558,15.6766897 C135.865941,15.6766897 134.886177,15.4052414 134.578094,15.2198621 L134.578094,14.0703448 C135.641681,14.3988966 136.959209,14.4284138 137.361558,14.4284138 L137.361558,14.4284138 Z M135.02524,12.4137931 C135.02524,12.126069 136.073436,11.8924138 137.361558,11.8924138 C138.651878,11.8924138 139.700349,12.1257931 139.700349,12.4137931 C139.700349,12.7009655 138.652153,12.9368276 137.361558,12.9368276 C136.073436,12.9368276 135.02524,12.7009655 135.02524,12.4137931 L135.02524,12.4137931 Z M137.361558,17.1649655 C137.764457,17.1649655 139.083634,17.1365517 140.14832,16.8091034 L140.14832,17.7213793 C139.716014,17.8342069 139.258974,17.984 138.787094,18.1914483 C138.723883,18.2297931 138.652153,18.2791724 138.583171,18.3268966 C138.224245,18.3663448 137.822995,18.3953103 137.361833,18.3953103 C135.866216,18.3953103 134.886452,18.1227586 134.578369,17.9368276 L134.578369,16.8091034 C135.641681,17.1365517 136.959209,17.1649655 137.361558,17.1649655 L137.361558,17.1649655 Z M136.683006,19.862069 C136.269939,20.2231724 135.851375,20.6016552 135.447652,20.9575172 C135.02524,20.8689655 134.725677,20.7646897 134.578094,20.6805517 L134.578094,19.5271724 C135.284678,19.7448276 136.094873,19.8295172 136.683006,19.862069 L136.683006,19.862069 Z M130.919301,37.9674483 C125.965516,37.9674483 121.477565,35.9561379 118.234038,32.6998621 C114.989412,29.438069 112.979865,24.9326897 112.979865,19.9646897 C112.979865,14.9922759 114.989412,10.4926897 118.234038,7.23475862 C121.477565,3.976 125.965516,1.96055172 130.919301,1.96055172 C135.870063,1.96055172 140.354991,3.97572414 143.600991,7.23475862 C146.282494,9.92772414 148.123021,13.4758621 148.678724,17.4364138 L142.909248,17.4364138 C142.739404,17.4217931 142.260652,17.3991724 141.609309,17.4609655 L141.609309,15.4262069 L141.609309,15.4066207 L141.609309,12.6910345 C141.609309,12.6557241 141.594193,12.6303448 141.592269,12.5944828 C141.605461,12.5296552 141.609309,12.4673103 141.609309,12.4137931 C141.609309,10.7616552 138.071715,10.6775172 137.362108,10.6775172 C136.451875,10.6775172 135.400381,10.7782069 134.578644,11.0306207 L134.578644,9.18703448 C134.578644,9.14648276 134.559131,9.11172414 134.553634,9.07117241 C134.567925,9 134.574246,8.92882759 134.574246,8.87117241 C134.574246,7.21517241 131.039951,7.13186207 130.330618,7.13186207 C128.899311,7.13186207 127.123094,7.37931034 126.428877,8.07613793 C126.142231,8.36496552 126.083967,8.66896552 126.086715,8.87117241 C126.086715,8.936 126.099632,9 126.11035,9.05986207 C126.101281,9.10289655 126.086715,9.14262069 126.086715,9.18703448 L126.086715,11.9089655 L126.086715,11.9274483 L126.086715,13.0422069 C125.02038,12.7122759 123.700928,12.6813793 123.296381,12.6813793 C121.865623,12.6813793 120.087207,12.9304828 119.397662,13.6308966 C119.108268,13.9153103 119.051653,14.2198621 119.051653,14.4212414 C119.051653,14.4788966 119.06512,14.5296552 119.071441,14.5873103 C119.066494,14.6226207 119.051653,14.6551724 119.051653,14.6954483 L119.051653,17.4148966 L119.051653,17.4344828 L119.051653,18.8535172 C118.432739,18.5136552 117.738797,18.4171034 117.093499,18.5627586 C116.385541,18.7164138 115.737495,19.1456552 115.315908,19.8082759 L115.31316,19.8082759 C114.891298,20.4714483 114.775595,21.2394483 114.931698,21.9462069 C115.085877,22.6526897 115.508013,23.2962759 116.157433,23.7211034 L132.653469,34.8449655 L133.050872,35.1166897 L133.488948,34.9255172 L146.251988,29.3064828 C145.506653,30.5395862 144.610437,31.6797241 143.600991,32.7001379 C140.354991,35.9561379 135.869788,37.9674483 130.919301,37.9674483 L130.919301,37.9674483 Z"></path>
                </g>
            </g>
        </g>
    </g>
</svg>